<?xml version="1.0" encoding="UTF-8" standalone="no"?>
<svg
  viewBox="0 0 313.04001 71.029999"
  version="1.1"
  width="313.04001"
  height="71.029999"
  xmlns="http://www.w3.org/2000/svg"
>
  <title>Enrise logo black</title>
  <path
    d="M 0,0.94 V 69.86 H 68.92 V 0.94 Z M 54,54.75 H 39.04 V 30.82 H 14.94 V 15.71 h 39 v 39 z"
  />
  <polygon
    points="193.81,153.34 193.81,97.52 188.68,97.52 188.68,90.78 222.57,90.78 222.57,109.48 213.93,109.48 213.93,97.52 202.44,97.52 202.44,120.68 215.83,120.68 215.83,127.42 202.44,127.42 202.44,153.34 214.03,153.34 214.03,141.09 222.66,141.09 222.66,160.07 188.68,160.07 188.68,160.07 188.68,153.34 "
    transform="translate(-93.48,-89.94)"
  />
  <polygon
    points="255.88,160.07 240.13,113.47 240.13,153.34 244.78,153.34 244.78,160.07 227.31,160.07 227.31,153.34 232.44,153.34 232.44,97.52 227.31,97.52 227.31,90.78 240.41,90.78 255.41,135.3 255.41,97.52 250.76,97.52 250.76,90.78 268.22,90.78 268.22,97.52 263.1,97.52 263.1,97.52 263.1,160.07 "
    transform="translate(-93.48,-89.94)"
  />
  <path
    d="m 211.7,70.14 c -4.55,0 -7.4,-1.71 -7.4,-8.26 v -16.9 c 0,-3.89 -1.52,-6.45 -6.55,-6.45 h -5.32 V 63.4 h 4.94 v 6.74 h -18.7 V 63.4 h 5.13 V 7.58 h -5.13 V 0.84 h 20 c 9.77,0 14.14,4 14.14,12.82 v 12 c 0,5.31 -2,8.45 -7.31,9.59 4.84,1.13 7.41,4.08 7.41,9.3 v 16.23 c 0,2.09 0.47,2.66 2.46,2.66 h 2.15 v 6.74 z m -7.5,-56.1 c 0,-3.89 -1.52,-6.46 -6.55,-6.46 h -5.22 v 24.21 h 5.22 c 4.94,0 6.55,-2.38 6.55,-6.46 V 14.06 Z"
  />
  <polygon
    points="319.94,153.34 319.94,97.52 314.81,97.52 314.81,90.78 333.7,90.78 333.7,97.52 328.58,97.52 328.58,153.34 333.7,153.34 333.7,160.07 314.81,160.07 314.81,160.07 314.81,153.34 "
    transform="translate(-93.48,-89.94)"
  />
  <path
    d="m 259.73,70.99 c -9.21,0 -14.62,-2.66 -14.62,-11.86 v -8 h 8.64 v 7.93 c 0,3.8 1.42,5.22 6,5.22 4.17,0 6,-1 6,-5.22 v -15.6 c 0,-3.13 -0.48,-3.7 -3.8,-4.36 l -8.26,-1.24 c -5.88,-0.76 -8.35,-3 -8.35,-10 v -16 C 245.34,3.8 249.71,0 259.77,0 c 8.92,0 14.43,3.13 14.43,11.86 v 7.69 h -8.68 v -7.59 c 0,-3.7 -1.52,-5.22 -5.79,-5.22 -3.7,0 -5.79,1.14 -5.79,5.22 v 13.86 c 0,3.32 0.66,3.8 3.79,4.37 l 8.26,1.23 c 5.79,0.76 8.35,3.13 8.35,10 v 17.75 c 0,8.35 -4.74,11.86 -14.61,11.86 z"
  />
  <polygon
    points="377.67,153.34 377.67,97.52 372.54,97.52 372.54,90.78 406.43,90.78 406.43,109.48 397.79,109.48 397.79,97.52 386.3,97.52 386.3,120.68 399.69,120.68 399.69,127.42 386.3,127.42 386.3,153.34 397.88,153.34 397.88,141.09 406.52,141.09 406.52,160.07 372.54,160.07 372.54,160.07 372.54,153.34 "
    transform="translate(-93.48,-89.94)"
  />
</svg>
